<svg width="285" height="14" viewBox="0 0 285 14" fill="none" xmlns="http://www.w3.org/2000/svg">
<path d="M8.47656 7.8418C8.35352 8.89453 7.96387 9.70801 7.30762 10.2822C6.65592 10.8519 5.78776 11.1367 4.70312 11.1367C3.52734 11.1367 2.58398 10.7152 1.87305 9.87207C1.16667 9.02897 0.813477 7.90104 0.813477 6.48828V5.53125C0.813477 4.60612 0.977539 3.79264 1.30566 3.09082C1.63835 2.389 2.10775 1.85124 2.71387 1.47754C3.31999 1.09928 4.02181 0.910156 4.81934 0.910156C5.87663 0.910156 6.72428 1.20638 7.3623 1.79883C8.00033 2.38672 8.37174 3.20247 8.47656 4.24609H7.15723C7.04329 3.45312 6.79492 2.87891 6.41211 2.52344C6.03385 2.16797 5.50293 1.99023 4.81934 1.99023C3.98079 1.99023 3.32227 2.30013 2.84375 2.91992C2.36979 3.53971 2.13281 4.42155 2.13281 5.56543V6.5293C2.13281 7.60938 2.3584 8.46842 2.80957 9.10645C3.26074 9.74447 3.89193 10.0635 4.70312 10.0635C5.43229 10.0635 5.99056 9.89941 6.37793 9.57129C6.76986 9.23861 7.02962 8.66211 7.15723 7.8418H8.47656ZM9.74121 7.2334C9.74121 6.50879 9.88249 5.8571 10.165 5.27832C10.4521 4.69954 10.8486 4.25293 11.3545 3.93848C11.8649 3.62402 12.446 3.4668 13.0977 3.4668C14.1048 3.4668 14.9183 3.81543 15.5381 4.5127C16.1624 5.20996 16.4746 6.13737 16.4746 7.29492V7.38379C16.4746 8.10384 16.3356 8.75098 16.0576 9.3252C15.7842 9.89486 15.39 10.3392 14.875 10.6582C14.3646 10.9772 13.7767 11.1367 13.1113 11.1367C12.1087 11.1367 11.2952 10.7881 10.6709 10.0908C10.0511 9.39355 9.74121 8.4707 9.74121 7.32227V7.2334ZM11.0127 7.38379C11.0127 8.2041 11.2018 8.86263 11.5801 9.35938C11.9629 9.85612 12.4733 10.1045 13.1113 10.1045C13.7539 10.1045 14.2643 9.85384 14.6426 9.35254C15.0208 8.84668 15.21 8.1403 15.21 7.2334C15.21 6.4222 15.0163 5.76595 14.6289 5.26465C14.2461 4.75879 13.7357 4.50586 13.0977 4.50586C12.4733 4.50586 11.9697 4.75423 11.5869 5.25098C11.2041 5.74772 11.0127 6.45866 11.0127 7.38379ZM24.3086 7.38379C24.3086 8.50944 24.0511 9.41634 23.5361 10.1045C23.0212 10.7926 22.3239 11.1367 21.4443 11.1367C20.5465 11.1367 19.8402 10.8519 19.3252 10.2822V13.8438H18.0605V3.60352H19.2158L19.2773 4.42383C19.7923 3.78581 20.5078 3.4668 21.4238 3.4668C22.3125 3.4668 23.0143 3.80176 23.5293 4.47168C24.0488 5.1416 24.3086 6.07357 24.3086 7.26758V7.38379ZM23.0439 7.24023C23.0439 6.40625 22.8662 5.74772 22.5107 5.26465C22.1553 4.78158 21.6676 4.54004 21.0479 4.54004C20.2822 4.54004 19.708 4.87956 19.3252 5.55859V9.09277C19.7035 9.76725 20.2822 10.1045 21.0615 10.1045C21.6676 10.1045 22.1484 9.86523 22.5039 9.38672C22.8639 8.90365 23.0439 8.18815 23.0439 7.24023ZM28.2598 9.14746L29.9824 3.60352H31.3359L28.3623 12.1416C27.902 13.3721 27.1706 13.9873 26.168 13.9873L25.9287 13.9668L25.457 13.8779V12.8525L25.7988 12.8799C26.2272 12.8799 26.5599 12.7933 26.7969 12.6201C27.0384 12.4469 27.2367 12.1302 27.3916 11.6699L27.6719 10.918L25.0332 3.60352H26.4141L28.2598 9.14746ZM36.0459 4.73828C35.8545 4.70638 35.6471 4.69043 35.4238 4.69043C34.5944 4.69043 34.0316 5.04362 33.7354 5.75V11H32.4707V3.60352H33.7012L33.7217 4.45801C34.1364 3.7972 34.7243 3.4668 35.4854 3.4668C35.7314 3.4668 35.9183 3.4987 36.0459 3.5625V4.73828ZM38.5889 11H37.3242V3.60352H38.5889V11ZM37.2217 1.6416C37.2217 1.43652 37.2832 1.26335 37.4062 1.12207C37.5339 0.980794 37.7207 0.910156 37.9668 0.910156C38.2129 0.910156 38.3997 0.980794 38.5273 1.12207C38.6549 1.26335 38.7188 1.43652 38.7188 1.6416C38.7188 1.84668 38.6549 2.01758 38.5273 2.1543C38.3997 2.29102 38.2129 2.35938 37.9668 2.35938C37.7207 2.35938 37.5339 2.29102 37.4062 2.1543C37.2832 2.01758 37.2217 1.84668 37.2217 1.6416ZM40.3184 7.24023C40.3184 6.08724 40.585 5.17122 41.1182 4.49219C41.6514 3.80859 42.3577 3.4668 43.2373 3.4668C44.1396 3.4668 44.8438 3.78581 45.3496 4.42383L45.4111 3.60352H46.5664V10.8223C46.5664 11.7793 46.2816 12.5335 45.7119 13.085C45.1468 13.6364 44.3857 13.9121 43.4287 13.9121C42.8955 13.9121 42.3737 13.7982 41.8633 13.5703C41.3529 13.3424 40.9632 13.0303 40.6943 12.6338L41.3506 11.875C41.8929 12.5449 42.556 12.8799 43.3398 12.8799C43.9551 12.8799 44.4336 12.7067 44.7754 12.3604C45.1217 12.014 45.2949 11.5264 45.2949 10.8975V10.2617C44.7891 10.8451 44.0986 11.1367 43.2236 11.1367C42.3577 11.1367 41.6559 10.7881 41.1182 10.0908C40.585 9.39355 40.3184 8.44336 40.3184 7.24023ZM41.5898 7.38379C41.5898 8.21777 41.7607 8.87402 42.1025 9.35254C42.4443 9.8265 42.9229 10.0635 43.5381 10.0635C44.3356 10.0635 44.9212 9.70117 45.2949 8.97656V5.59961C44.9076 4.89323 44.3265 4.54004 43.5518 4.54004C42.9365 4.54004 42.4557 4.7793 42.1094 5.25781C41.763 5.73633 41.5898 6.44499 41.5898 7.38379ZM49.7451 4.49902C50.3057 3.81087 51.0348 3.4668 51.9326 3.4668C53.4958 3.4668 54.2842 4.34863 54.2979 6.1123V11H53.0332V6.10547C53.0286 5.57227 52.9056 5.17806 52.6641 4.92285C52.4271 4.66764 52.0557 4.54004 51.5498 4.54004C51.1396 4.54004 50.7796 4.64941 50.4697 4.86816C50.1598 5.08691 49.9183 5.37402 49.7451 5.72949V11H48.4805V0.5H49.7451V4.49902ZM57.9072 1.8125V3.60352H59.2881V4.58105H57.9072V9.16797C57.9072 9.46419 57.9688 9.6875 58.0918 9.83789C58.2148 9.98372 58.4245 10.0566 58.7207 10.0566C58.8665 10.0566 59.0671 10.0293 59.3223 9.97461V11C58.9896 11.0911 58.666 11.1367 58.3516 11.1367C57.7865 11.1367 57.3604 10.9658 57.0732 10.624C56.7861 10.2822 56.6426 9.79688 56.6426 9.16797V4.58105H55.2959V3.60352H56.6426V1.8125H57.9072ZM70.9365 6.91895C70.9365 7.61621 70.7383 8.14941 70.3418 8.51855C69.9499 8.88314 69.3939 9.06543 68.6738 9.06543C67.9583 9.06543 67.3841 8.82617 66.9512 8.34766C66.5228 7.86458 66.3086 7.20833 66.3086 6.37891V5.62695C66.3086 4.82487 66.5251 4.18457 66.958 3.70605C67.3955 3.22298 67.9674 2.98145 68.6738 2.98145C69.403 2.98145 69.9635 3.16829 70.3555 3.54199C70.7474 3.91569 70.9434 4.44206 70.9434 5.12109H69.9453C69.9453 4.66992 69.8359 4.34863 69.6172 4.15723C69.403 3.96126 69.0885 3.86328 68.6738 3.86328C68.2454 3.86328 67.9082 4.02051 67.6621 4.33496C67.416 4.64941 67.293 5.08691 67.293 5.64746V6.41992C67.293 6.9668 67.416 7.39746 67.6621 7.71191C67.9082 8.02637 68.2454 8.18359 68.6738 8.18359C69.0931 8.18359 69.4076 8.08789 69.6172 7.89648C69.8314 7.70508 69.9385 7.37923 69.9385 6.91895H70.9365ZM64.6953 6.0166C64.6953 6.80046 64.8776 7.52734 65.2422 8.19727C65.6068 8.86263 66.1012 9.38444 66.7256 9.7627C67.3545 10.141 68.0335 10.3301 68.7627 10.3301C69.4919 10.3301 70.1686 10.141 70.793 9.7627C71.4173 9.38444 71.9118 8.86263 72.2764 8.19727C72.641 7.52734 72.8232 6.80046 72.8232 6.0166C72.8232 5.24186 72.6432 4.52409 72.2832 3.86328C71.9232 3.20247 71.4287 2.68294 70.7998 2.30469C70.1755 1.92188 69.4964 1.73047 68.7627 1.73047C68.0335 1.73047 67.3545 1.9196 66.7256 2.29785C66.0967 2.67155 65.5999 3.19108 65.2354 3.85645C64.8753 4.52181 64.6953 5.24186 64.6953 6.0166ZM63.9092 6.0166C63.9092 5.09603 64.1211 4.24154 64.5449 3.45312C64.9733 2.66471 65.5635 2.04492 66.3154 1.59375C67.0719 1.13802 67.8877 0.910156 68.7627 0.910156C69.6377 0.910156 70.4512 1.13802 71.2031 1.59375C71.9551 2.04492 72.543 2.66471 72.9668 3.45312C73.3952 4.24154 73.6094 5.09603 73.6094 6.0166C73.6094 6.91439 73.4043 7.75521 72.9941 8.53906C72.584 9.32292 72.0007 9.9541 71.2441 10.4326C70.4922 10.9066 69.665 11.1436 68.7627 11.1436C67.8649 11.1436 67.0378 10.9089 66.2812 10.4395C65.5293 9.96549 64.946 9.33659 64.5312 8.55273C64.1165 7.76888 63.9092 6.9235 63.9092 6.0166ZM85.1143 11H78.5928V10.0908L82.0381 6.2627C82.5485 5.68392 82.8994 5.21452 83.0908 4.85449C83.2868 4.48991 83.3848 4.11393 83.3848 3.72656C83.3848 3.20703 83.2275 2.78092 82.9131 2.44824C82.5986 2.11556 82.1794 1.94922 81.6553 1.94922C81.0264 1.94922 80.5365 2.12923 80.1855 2.48926C79.8392 2.84473 79.666 3.34147 79.666 3.97949H78.4014C78.4014 3.06348 78.6953 2.32292 79.2832 1.75781C79.8757 1.19271 80.6663 0.910156 81.6553 0.910156C82.5804 0.910156 83.3118 1.15397 83.8496 1.6416C84.3874 2.12467 84.6562 2.76953 84.6562 3.57617C84.6562 4.55599 84.0319 5.72266 82.7832 7.07617L80.1172 9.96777H85.1143V11ZM92.6953 6.75488C92.6953 8.236 92.4424 9.33659 91.9365 10.0566C91.4307 10.7767 90.64 11.1367 89.5645 11.1367C88.5026 11.1367 87.7165 10.7858 87.2061 10.084C86.6956 9.3776 86.4313 8.32487 86.4131 6.92578V5.2373C86.4131 3.77441 86.666 2.6875 87.1719 1.97656C87.6777 1.26562 88.4707 0.910156 89.5508 0.910156C90.6217 0.910156 91.4102 1.25423 91.916 1.94238C92.4219 2.62598 92.6816 3.68327 92.6953 5.11426V6.75488ZM91.4307 5.02539C91.4307 3.95443 91.2803 3.17513 90.9795 2.6875C90.6787 2.19531 90.2025 1.94922 89.5508 1.94922C88.9036 1.94922 88.432 2.19303 88.1357 2.68066C87.8395 3.16829 87.6868 3.91797 87.6777 4.92969V6.95312C87.6777 8.02865 87.8327 8.82389 88.1426 9.33887C88.457 9.84928 88.931 10.1045 89.5645 10.1045C90.1888 10.1045 90.6514 9.86296 90.9521 9.37988C91.2575 8.89681 91.417 8.13574 91.4307 7.09668V5.02539ZM100.837 11H94.3154V10.0908L97.7607 6.2627C98.2712 5.68392 98.6221 5.21452 98.8135 4.85449C99.0094 4.48991 99.1074 4.11393 99.1074 3.72656C99.1074 3.20703 98.9502 2.78092 98.6357 2.44824C98.3213 2.11556 97.902 1.94922 97.3779 1.94922C96.749 1.94922 96.2591 2.12923 95.9082 2.48926C95.5618 2.84473 95.3887 3.34147 95.3887 3.97949H94.124C94.124 3.06348 94.418 2.32292 95.0059 1.75781C95.5983 1.19271 96.389 0.910156 97.3779 0.910156C98.3031 0.910156 99.0345 1.15397 99.5723 1.6416C100.11 2.12467 100.379 2.76953 100.379 3.57617C100.379 4.55599 99.7546 5.72266 98.5059 7.07617L95.8398 9.96777H100.837V11ZM106.333 11H105.062V2.57129L102.512 3.50781V2.35938L106.135 0.999023H106.333V11ZM110.195 10.3369C110.195 10.1182 110.259 9.93587 110.387 9.79004C110.519 9.64421 110.715 9.57129 110.975 9.57129C111.234 9.57129 111.43 9.64421 111.562 9.79004C111.699 9.93587 111.768 10.1182 111.768 10.3369C111.768 10.5465 111.699 10.722 111.562 10.8633C111.43 11.0046 111.234 11.0752 110.975 11.0752C110.715 11.0752 110.519 11.0046 110.387 10.8633C110.259 10.722 110.195 10.5465 110.195 10.3369ZM124.134 2.12695H120.935V11H119.629V2.12695H116.437V1.04688H124.134V2.12695ZM127.798 11.1367C126.795 11.1367 125.979 10.8086 125.351 10.1523C124.722 9.49154 124.407 8.6097 124.407 7.50684V7.27441C124.407 6.54069 124.546 5.88672 124.824 5.3125C125.107 4.73372 125.499 4.28255 126 3.95898C126.506 3.63086 127.053 3.4668 127.641 3.4668C128.602 3.4668 129.35 3.78353 129.883 4.41699C130.416 5.05046 130.683 5.95736 130.683 7.1377V7.66406H125.672C125.69 8.39323 125.902 8.9834 126.308 9.43457C126.718 9.88118 127.237 10.1045 127.866 10.1045C128.313 10.1045 128.691 10.0133 129.001 9.83105C129.311 9.64876 129.582 9.40723 129.814 9.10645L130.587 9.70801C129.967 10.6605 129.037 11.1367 127.798 11.1367ZM127.641 4.50586C127.13 4.50586 126.702 4.69271 126.355 5.06641C126.009 5.43555 125.795 5.95508 125.713 6.625H129.418V6.5293C129.382 5.88672 129.208 5.38997 128.898 5.03906C128.589 4.68359 128.169 4.50586 127.641 4.50586ZM136.719 11C136.646 10.8542 136.587 10.5944 136.541 10.2207C135.953 10.8314 135.251 11.1367 134.436 11.1367C133.706 11.1367 133.107 10.9316 132.638 10.5215C132.173 10.1068 131.94 9.58268 131.94 8.94922C131.94 8.17904 132.232 7.58203 132.815 7.1582C133.403 6.72982 134.228 6.51562 135.29 6.51562H136.521V5.93457C136.521 5.49251 136.388 5.1416 136.124 4.88184C135.86 4.61751 135.47 4.48535 134.955 4.48535C134.504 4.48535 134.126 4.59928 133.82 4.82715C133.515 5.05501 133.362 5.33073 133.362 5.6543H132.091C132.091 5.28516 132.221 4.92969 132.48 4.58789C132.745 4.24154 133.1 3.9681 133.547 3.76758C133.998 3.56706 134.493 3.4668 135.03 3.4668C135.882 3.4668 136.55 3.68099 137.033 4.10938C137.516 4.5332 137.767 5.11882 137.785 5.86621V9.27051C137.785 9.94954 137.872 10.4896 138.045 10.8906V11H136.719ZM134.62 10.0361C135.017 10.0361 135.393 9.93359 135.748 9.72852C136.104 9.52344 136.361 9.25684 136.521 8.92871V7.41113H135.529C133.98 7.41113 133.205 7.86458 133.205 8.77148C133.205 9.16797 133.337 9.47786 133.602 9.70117C133.866 9.92448 134.205 10.0361 134.62 10.0361ZM140.957 3.60352L140.991 4.42383C141.534 3.78581 142.265 3.4668 143.186 3.4668C144.22 3.4668 144.924 3.86328 145.298 4.65625C145.544 4.30078 145.863 4.01367 146.255 3.79492C146.651 3.57617 147.118 3.4668 147.656 3.4668C149.279 3.4668 150.104 4.32585 150.131 6.04395V11H148.866V6.11914C148.866 5.59049 148.745 5.19629 148.504 4.93652C148.262 4.6722 147.857 4.54004 147.287 4.54004C146.818 4.54004 146.428 4.68132 146.118 4.96387C145.808 5.24186 145.628 5.61784 145.578 6.0918V11H144.307V6.15332C144.307 5.0778 143.78 4.54004 142.728 4.54004C141.898 4.54004 141.331 4.89323 141.025 5.59961V11H139.761V3.60352H140.957ZM155.969 6.00977L156.475 1.04688H161.574V2.21582H157.548L157.247 4.92969C157.735 4.64258 158.288 4.49902 158.908 4.49902C159.815 4.49902 160.535 4.7998 161.068 5.40137C161.602 5.99837 161.868 6.80729 161.868 7.82812C161.868 8.85352 161.59 9.66243 161.034 10.2549C160.483 10.8428 159.71 11.1367 158.717 11.1367C157.837 11.1367 157.119 10.8929 156.563 10.4053C156.007 9.91764 155.691 9.24316 155.613 8.38184H156.81C156.887 8.9515 157.09 9.38216 157.418 9.67383C157.746 9.96094 158.179 10.1045 158.717 10.1045C159.305 10.1045 159.765 9.90397 160.098 9.50293C160.435 9.10189 160.604 8.54818 160.604 7.8418C160.604 7.17643 160.421 6.64323 160.057 6.24219C159.697 5.83659 159.216 5.63379 158.614 5.63379C158.063 5.63379 157.63 5.75456 157.315 5.99609L156.98 6.26953L155.969 6.00977ZM163.406 10.3369C163.406 10.1182 163.47 9.93587 163.598 9.79004C163.73 9.64421 163.926 9.57129 164.186 9.57129C164.445 9.57129 164.641 9.64421 164.773 9.79004C164.91 9.93587 164.979 10.1182 164.979 10.3369C164.979 10.5465 164.91 10.722 164.773 10.8633C164.641 11.0046 164.445 11.0752 164.186 11.0752C163.926 11.0752 163.73 11.0046 163.598 10.8633C163.47 10.722 163.406 10.5465 163.406 10.3369ZM176.237 8.40234H172.067L171.131 11H169.777L173.578 1.04688H174.727L178.534 11H177.188L176.237 8.40234ZM172.464 7.32227H175.848L174.152 2.66699L172.464 7.32227ZM181.05 11H179.785V0.5H181.05V11ZM184.454 11H183.189V0.5H184.454V11ZM193.532 4.73828C193.341 4.70638 193.133 4.69043 192.91 4.69043C192.081 4.69043 191.518 5.04362 191.222 5.75V11H189.957V3.60352H191.188L191.208 4.45801C191.623 3.7972 192.211 3.4668 192.972 3.4668C193.218 3.4668 193.405 3.4987 193.532 3.5625V4.73828ZM196.075 11H194.811V3.60352H196.075V11ZM194.708 1.6416C194.708 1.43652 194.77 1.26335 194.893 1.12207C195.02 0.980794 195.207 0.910156 195.453 0.910156C195.699 0.910156 195.886 0.980794 196.014 1.12207C196.141 1.26335 196.205 1.43652 196.205 1.6416C196.205 1.84668 196.141 2.01758 196.014 2.1543C195.886 2.29102 195.699 2.35938 195.453 2.35938C195.207 2.35938 195.02 2.29102 194.893 2.1543C194.77 2.01758 194.708 1.84668 194.708 1.6416ZM197.805 7.24023C197.805 6.08724 198.071 5.17122 198.604 4.49219C199.138 3.80859 199.844 3.4668 200.724 3.4668C201.626 3.4668 202.33 3.78581 202.836 4.42383L202.897 3.60352H204.053V10.8223C204.053 11.7793 203.768 12.5335 203.198 13.085C202.633 13.6364 201.872 13.9121 200.915 13.9121C200.382 13.9121 199.86 13.7982 199.35 13.5703C198.839 13.3424 198.45 13.0303 198.181 12.6338L198.837 11.875C199.379 12.5449 200.042 12.8799 200.826 12.8799C201.441 12.8799 201.92 12.7067 202.262 12.3604C202.608 12.014 202.781 11.5264 202.781 10.8975V10.2617C202.275 10.8451 201.585 11.1367 200.71 11.1367C199.844 11.1367 199.142 10.7881 198.604 10.0908C198.071 9.39355 197.805 8.44336 197.805 7.24023ZM199.076 7.38379C199.076 8.21777 199.247 8.87402 199.589 9.35254C199.931 9.8265 200.409 10.0635 201.024 10.0635C201.822 10.0635 202.408 9.70117 202.781 8.97656V5.59961C202.394 4.89323 201.813 4.54004 201.038 4.54004C200.423 4.54004 199.942 4.7793 199.596 5.25781C199.249 5.73633 199.076 6.44499 199.076 7.38379ZM207.231 4.49902C207.792 3.81087 208.521 3.4668 209.419 3.4668C210.982 3.4668 211.771 4.34863 211.784 6.1123V11H210.52V6.10547C210.515 5.57227 210.392 5.17806 210.15 4.92285C209.913 4.66764 209.542 4.54004 209.036 4.54004C208.626 4.54004 208.266 4.64941 207.956 4.86816C207.646 5.08691 207.405 5.37402 207.231 5.72949V11H205.967V0.5H207.231V4.49902ZM215.394 1.8125V3.60352H216.774V4.58105H215.394V9.16797C215.394 9.46419 215.455 9.6875 215.578 9.83789C215.701 9.98372 215.911 10.0566 216.207 10.0566C216.353 10.0566 216.553 10.0293 216.809 9.97461V11C216.476 11.0911 216.152 11.1367 215.838 11.1367C215.273 11.1367 214.847 10.9658 214.56 10.624C214.272 10.2822 214.129 9.79688 214.129 9.16797V4.58105H212.782V3.60352H214.129V1.8125H215.394ZM222.564 9.03809C222.564 8.69629 222.435 8.43197 222.175 8.24512C221.92 8.05371 221.471 7.88965 220.828 7.75293C220.19 7.61621 219.682 7.45215 219.304 7.26074C218.93 7.06934 218.652 6.84147 218.47 6.57715C218.292 6.31283 218.203 5.99837 218.203 5.63379C218.203 5.02767 218.458 4.51497 218.969 4.0957C219.484 3.67643 220.14 3.4668 220.938 3.4668C221.776 3.4668 222.455 3.68327 222.975 4.11621C223.499 4.54915 223.761 5.10286 223.761 5.77734H222.489C222.489 5.43099 222.341 5.13249 222.045 4.88184C221.753 4.63118 221.384 4.50586 220.938 4.50586C220.477 4.50586 220.117 4.60612 219.857 4.80664C219.598 5.00716 219.468 5.26921 219.468 5.59277C219.468 5.89811 219.589 6.12826 219.83 6.2832C220.072 6.43815 220.507 6.58626 221.136 6.72754C221.769 6.86882 222.282 7.03743 222.674 7.2334C223.066 7.42936 223.355 7.66634 223.542 7.94434C223.733 8.21777 223.829 8.55273 223.829 8.94922C223.829 9.61003 223.565 10.141 223.036 10.542C222.507 10.9385 221.822 11.1367 220.979 11.1367C220.386 11.1367 219.862 11.0319 219.406 10.8223C218.951 10.6126 218.593 10.321 218.333 9.94727C218.078 9.56901 217.95 9.16113 217.95 8.72363H219.215C219.238 9.14746 219.406 9.4847 219.721 9.73535C220.04 9.98145 220.459 10.1045 220.979 10.1045C221.457 10.1045 221.84 10.0088 222.127 9.81738C222.419 9.62142 222.564 9.36165 222.564 9.03809ZM232.524 4.73828C232.333 4.70638 232.126 4.69043 231.902 4.69043C231.073 4.69043 230.51 5.04362 230.214 5.75V11H228.949V3.60352H230.18L230.2 4.45801C230.615 3.7972 231.203 3.4668 231.964 3.4668C232.21 3.4668 232.397 3.4987 232.524 3.5625V4.73828ZM236.626 11.1367C235.623 11.1367 234.808 10.8086 234.179 10.1523C233.55 9.49154 233.235 8.6097 233.235 7.50684V7.27441C233.235 6.54069 233.374 5.88672 233.652 5.3125C233.935 4.73372 234.327 4.28255 234.828 3.95898C235.334 3.63086 235.881 3.4668 236.469 3.4668C237.43 3.4668 238.178 3.78353 238.711 4.41699C239.244 5.05046 239.511 5.95736 239.511 7.1377V7.66406H234.5C234.518 8.39323 234.73 8.9834 235.136 9.43457C235.546 9.88118 236.065 10.1045 236.694 10.1045C237.141 10.1045 237.519 10.0133 237.829 9.83105C238.139 9.64876 238.41 9.40723 238.643 9.10645L239.415 9.70801C238.795 10.6605 237.866 11.1367 236.626 11.1367ZM236.469 4.50586C235.958 4.50586 235.53 4.69271 235.184 5.06641C234.837 5.43555 234.623 5.95508 234.541 6.625H238.246V6.5293C238.21 5.88672 238.036 5.38997 237.727 5.03906C237.417 4.68359 236.997 4.50586 236.469 4.50586ZM245.287 9.03809C245.287 8.69629 245.157 8.43197 244.897 8.24512C244.642 8.05371 244.193 7.88965 243.551 7.75293C242.913 7.61621 242.405 7.45215 242.026 7.26074C241.653 7.06934 241.375 6.84147 241.192 6.57715C241.015 6.31283 240.926 5.99837 240.926 5.63379C240.926 5.02767 241.181 4.51497 241.691 4.0957C242.206 3.67643 242.863 3.4668 243.66 3.4668C244.499 3.4668 245.178 3.68327 245.697 4.11621C246.221 4.54915 246.483 5.10286 246.483 5.77734H245.212C245.212 5.43099 245.064 5.13249 244.768 4.88184C244.476 4.63118 244.107 4.50586 243.66 4.50586C243.2 4.50586 242.84 4.60612 242.58 4.80664C242.32 5.00716 242.19 5.26921 242.19 5.59277C242.19 5.89811 242.311 6.12826 242.553 6.2832C242.794 6.43815 243.229 6.58626 243.858 6.72754C244.492 6.86882 245.005 7.03743 245.396 7.2334C245.788 7.42936 246.078 7.66634 246.265 7.94434C246.456 8.21777 246.552 8.55273 246.552 8.94922C246.552 9.61003 246.287 10.141 245.759 10.542C245.23 10.9385 244.544 11.1367 243.701 11.1367C243.109 11.1367 242.585 11.0319 242.129 10.8223C241.673 10.6126 241.315 10.321 241.056 9.94727C240.8 9.56901 240.673 9.16113 240.673 8.72363H241.938C241.96 9.14746 242.129 9.4847 242.443 9.73535C242.762 9.98145 243.182 10.1045 243.701 10.1045C244.18 10.1045 244.562 10.0088 244.85 9.81738C245.141 9.62142 245.287 9.36165 245.287 9.03809ZM251.269 11.1367C250.266 11.1367 249.45 10.8086 248.821 10.1523C248.192 9.49154 247.878 8.6097 247.878 7.50684V7.27441C247.878 6.54069 248.017 5.88672 248.295 5.3125C248.577 4.73372 248.969 4.28255 249.471 3.95898C249.977 3.63086 250.523 3.4668 251.111 3.4668C252.073 3.4668 252.82 3.78353 253.354 4.41699C253.887 5.05046 254.153 5.95736 254.153 7.1377V7.66406H249.143C249.161 8.39323 249.373 8.9834 249.778 9.43457C250.188 9.88118 250.708 10.1045 251.337 10.1045C251.784 10.1045 252.162 10.0133 252.472 9.83105C252.782 9.64876 253.053 9.40723 253.285 9.10645L254.058 9.70801C253.438 10.6605 252.508 11.1367 251.269 11.1367ZM251.111 4.50586C250.601 4.50586 250.173 4.69271 249.826 5.06641C249.48 5.43555 249.266 5.95508 249.184 6.625H252.889V6.5293C252.852 5.88672 252.679 5.38997 252.369 5.03906C252.059 4.68359 251.64 4.50586 251.111 4.50586ZM259.198 4.73828C259.007 4.70638 258.799 4.69043 258.576 4.69043C257.747 4.69043 257.184 5.04362 256.888 5.75V11H255.623V3.60352H256.854L256.874 4.45801C257.289 3.7972 257.877 3.4668 258.638 3.4668C258.884 3.4668 259.071 3.4987 259.198 3.5625V4.73828ZM262.931 9.28418L264.763 3.60352H266.055L263.402 11H262.438L259.759 3.60352H261.051L262.931 9.28418ZM270.245 11.1367C269.243 11.1367 268.427 10.8086 267.798 10.1523C267.169 9.49154 266.854 8.6097 266.854 7.50684V7.27441C266.854 6.54069 266.993 5.88672 267.271 5.3125C267.554 4.73372 267.946 4.28255 268.447 3.95898C268.953 3.63086 269.5 3.4668 270.088 3.4668C271.049 3.4668 271.797 3.78353 272.33 4.41699C272.863 5.05046 273.13 5.95736 273.13 7.1377V7.66406H268.119C268.137 8.39323 268.349 8.9834 268.755 9.43457C269.165 9.88118 269.685 10.1045 270.313 10.1045C270.76 10.1045 271.138 10.0133 271.448 9.83105C271.758 9.64876 272.029 9.40723 272.262 9.10645L273.034 9.70801C272.414 10.6605 271.485 11.1367 270.245 11.1367ZM270.088 4.50586C269.577 4.50586 269.149 4.69271 268.803 5.06641C268.456 5.43555 268.242 5.95508 268.16 6.625H271.865V6.5293C271.829 5.88672 271.656 5.38997 271.346 5.03906C271.036 4.68359 270.617 4.50586 270.088 4.50586ZM274.292 7.24023C274.292 6.10547 274.561 5.19401 275.099 4.50586C275.636 3.81315 276.34 3.4668 277.211 3.4668C278.077 3.4668 278.763 3.76302 279.269 4.35547V0.5H280.533V11H279.371L279.31 10.207C278.804 10.8268 278.1 11.1367 277.197 11.1367C276.34 11.1367 275.641 10.7858 275.099 10.084C274.561 9.38216 274.292 8.46615 274.292 7.33594V7.24023ZM275.557 7.38379C275.557 8.22233 275.73 8.87858 276.076 9.35254C276.423 9.8265 276.901 10.0635 277.512 10.0635C278.314 10.0635 278.899 9.70345 279.269 8.9834V5.58594C278.89 4.88867 278.309 4.54004 277.525 4.54004C276.906 4.54004 276.423 4.7793 276.076 5.25781C275.73 5.73633 275.557 6.44499 275.557 7.38379ZM282.529 10.3369C282.529 10.1182 282.593 9.93587 282.721 9.79004C282.853 9.64421 283.049 9.57129 283.309 9.57129C283.568 9.57129 283.764 9.64421 283.896 9.79004C284.033 9.93587 284.102 10.1182 284.102 10.3369C284.102 10.5465 284.033 10.722 283.896 10.8633C283.764 11.0046 283.568 11.0752 283.309 11.0752C283.049 11.0752 282.853 11.0046 282.721 10.8633C282.593 10.722 282.529 10.5465 282.529 10.3369Z" fill="white"/>
</svg>
